<svg width="163" height="40" viewBox="0 0 163 40" fill="none" xmlns="http://www.w3.org/2000/svg">
<g clip-path="url(#clip0_10_3334)">
<path d="M23.3721 8.62529C23.3721 8.62529 20.3338 1.36132 9.18799 2.52068V27.7227C9.18799 27.7227 17.2915 26.4314 23.3721 29.4697V8.62529Z" stroke="white" stroke-width="0.743587" stroke-linecap="round" stroke-linejoin="round"/>
<path d="M8.17336 5.26711C8.17336 5.26711 6.87008 3.94785 5.85864 3.89587V31.5525C5.85864 31.5525 13.1666 28.5622 20.4785 31.5525" stroke="white" stroke-width="0.743587" stroke-linecap="round" stroke-linejoin="round"/>
<path d="M3.44759 6.74634H2.19228C1.4447 6.74634 0.837036 7.354 0.837036 8.10158V33.9912C0.837036 34.7388 1.4447 35.3464 2.19228 35.3464H20.3462C20.3462 35.3464 21.4216 38.021 23.4165 38.021C25.4114 38.021 26.4868 35.5303 26.4868 35.5303H44.2569C45.0045 35.5303 45.6122 34.9227 45.6122 34.1751V8.10158C45.6122 7.354 45.0045 6.74634 44.2569 6.74634H43.1895V31.5805C43.1895 32.2801 42.6258 32.8438 41.9262 32.8438H27.7461C27.0545 32.8438 26.4508 33.2756 26.183 33.9152C25.8192 34.7907 25.0396 35.8901 23.4085 35.8901C21.9293 35.8901 21.1058 34.7268 20.69 33.8353C20.4102 33.2316 19.8105 32.8438 19.1429 32.8438H4.60294C3.90333 32.8438 3.33565 32.2761 3.33965 31.5765L3.45158 6.74634H3.44759Z" fill="#3758F9"/>
<path d="M12.8096 7.97355C12.8096 7.97355 18.0147 7.58576 21.117 10.804" stroke="white" stroke-width="0.743587" stroke-linecap="round" stroke-linejoin="round"/>
<path d="M12.8096 10.4721C12.8096 10.4721 18.0147 10.0444 21.117 13.3025" stroke="white" stroke-width="0.743587" stroke-linecap="round" stroke-linejoin="round"/>
<path d="M12.8096 13.1067C12.8096 13.1067 17.6349 12.7189 21.117 15.9371" stroke="white" stroke-width="0.743587" stroke-linecap="round" stroke-linejoin="round"/>
<path d="M12.8096 15.6013C12.8096 15.6013 17.1432 14.7418 21.117 18.4317" stroke="white" stroke-width="0.743587" stroke-linecap="round" stroke-linejoin="round"/>
<path d="M12.8096 18.2358C12.8096 18.2358 17.483 17.5202 21.117 21.0662" stroke="white" stroke-width="0.743587" stroke-linecap="round" stroke-linejoin="round"/>
<path d="M12.8096 20.7344C12.8096 20.7344 17.7108 19.9309 21.117 23.5609" stroke="white" stroke-width="0.743587" stroke-linecap="round" stroke-linejoin="round"/>
<path d="M23.3727 8.62529C23.3727 8.62529 26.411 1.36132 37.5568 2.52068V27.7227C37.5568 27.7227 29.4533 26.4314 23.3727 29.4697V8.62529Z" stroke="white" stroke-width="0.743587" stroke-linecap="round" stroke-linejoin="round"/>
<path d="M38.5676 5.26711C38.5676 5.26711 39.8709 3.94785 40.8823 3.89587V31.5525C40.8823 31.5525 33.5744 28.5622 26.2625 31.5525" stroke="white" stroke-width="0.743587" stroke-linecap="round" stroke-linejoin="round"/>
<path d="M33.9304 7.97367C33.9304 7.97367 28.7253 7.58588 25.623 10.8041" stroke="white" stroke-width="0.743587" stroke-linecap="round" stroke-linejoin="round"/>
<path d="M33.9304 10.4722C33.9304 10.4722 28.7253 10.0445 25.623 13.3027" stroke="white" stroke-width="0.743587" stroke-linecap="round" stroke-linejoin="round"/>
<path d="M33.9304 13.1068C33.9304 13.1068 29.1051 12.719 25.623 15.9372" stroke="white" stroke-width="0.743587" stroke-linecap="round" stroke-linejoin="round"/>
<path d="M33.9304 15.6014C33.9304 15.6014 29.5968 14.7419 25.623 18.4318" stroke="white" stroke-width="0.743587" stroke-linecap="round" stroke-linejoin="round"/>
<path d="M33.9304 18.2359C33.9304 18.2359 29.257 17.5203 25.623 21.0664" stroke="white" stroke-width="0.743587" stroke-linecap="round" stroke-linejoin="round"/>
<path d="M33.9304 20.7345C33.9304 20.7345 29.0292 19.931 25.623 23.561" stroke="white" stroke-width="0.743587" stroke-linecap="round" stroke-linejoin="round"/>
<path d="M25.9309 4.90333V9.98051L27.4581 11.3558L29.7768 7.92965V2.73254L29.6488 2.6326C29.2171 2.30078 28.6614 2.22882 28.1697 2.4407C27.8059 2.59662 27.3621 2.81649 26.9144 3.11233C26.5146 3.37618 26.2187 3.79595 26.0908 4.28768L25.9349 4.89934L25.9309 4.90333Z" fill="#3758F9"/>
</g>
<path d="M63.4382 27V13.9091H68.2322C69.1612 13.9091 69.9304 14.0625 70.5398 14.3693C71.1491 14.6719 71.6051 15.0831 71.9077 15.603C72.2102 16.1186 72.3615 16.7003 72.3615 17.348C72.3615 17.8935 72.2614 18.3537 72.0611 18.7287C71.8608 19.0994 71.5923 19.3977 71.2557 19.6236C70.9233 19.8452 70.5568 20.0071 70.1562 20.1094V20.2372C70.5909 20.2585 71.0149 20.3991 71.4283 20.6591C71.8459 20.9148 72.1911 21.2791 72.4638 21.7521C72.7365 22.2251 72.8729 22.8004 72.8729 23.478C72.8729 24.147 72.7152 24.7479 72.3999 25.2805C72.0888 25.8089 71.6072 26.2287 70.9553 26.5398C70.3033 26.8466 69.4702 27 68.456 27H63.4382ZM65.4134 25.3061H68.2642C69.2102 25.3061 69.8878 25.1229 70.2969 24.7564C70.706 24.3899 70.9105 23.9318 70.9105 23.3821C70.9105 22.9687 70.8061 22.5895 70.5973 22.2443C70.3885 21.8991 70.0902 21.6243 69.7024 21.4197C69.3189 21.2152 68.8629 21.1129 68.3345 21.1129H65.4134V25.3061ZM65.4134 19.5724H68.0597C68.5028 19.5724 68.9013 19.4872 69.255 19.3168C69.6129 19.1463 69.8963 18.9077 70.1051 18.6009C70.3182 18.2898 70.4247 17.9233 70.4247 17.5014C70.4247 16.9602 70.2351 16.5064 69.8558 16.1399C69.4766 15.7734 68.8949 15.5902 68.1108 15.5902H65.4134V19.5724ZM79.1978 27.1982C78.2773 27.1982 77.4741 26.9872 76.788 26.5653C76.1019 26.1435 75.5692 25.5533 75.19 24.7947C74.8107 24.0362 74.6211 23.1499 74.6211 22.1357C74.6211 21.1172 74.8107 20.2266 75.19 19.4638C75.5692 18.701 76.1019 18.1087 76.788 17.6868C77.4741 17.2649 78.2773 17.054 79.1978 17.054C80.1183 17.054 80.9215 17.2649 81.6076 17.6868C82.2937 18.1087 82.8263 18.701 83.2056 19.4638C83.5849 20.2266 83.7745 21.1172 83.7745 22.1357C83.7745 23.1499 83.5849 24.0362 83.2056 24.7947C82.8263 25.5533 82.2937 26.1435 81.6076 26.5653C80.9215 26.9872 80.1183 27.1982 79.1978 27.1982ZM79.2042 25.5938C79.8008 25.5938 80.2951 25.4361 80.6871 25.1207C81.0792 24.8054 81.369 24.3857 81.5565 23.8615C81.7482 23.3374 81.8441 22.7599 81.8441 22.1293C81.8441 21.5028 81.7482 20.9276 81.5565 20.4034C81.369 19.875 81.0792 19.451 80.6871 19.1314C80.2951 18.8118 79.8008 18.652 79.2042 18.652C78.6033 18.652 78.1048 18.8118 77.7085 19.1314C77.3164 19.451 77.0245 19.875 76.8327 20.4034C76.6452 20.9276 76.5515 21.5028 76.5515 22.1293C76.5515 22.7599 76.6452 23.3374 76.8327 23.8615C77.0245 24.3857 77.3164 24.8054 77.7085 25.1207C78.1048 25.4361 78.6033 25.5938 79.2042 25.5938ZM90.0435 27.1982C89.123 27.1982 88.3198 26.9872 87.6337 26.5653C86.9476 26.1435 86.415 25.5533 86.0357 24.7947C85.6564 24.0362 85.4668 23.1499 85.4668 22.1357C85.4668 21.1172 85.6564 20.2266 86.0357 19.4638C86.415 18.701 86.9476 18.1087 87.6337 17.6868C88.3198 17.2649 89.123 17.054 90.0435 17.054C90.964 17.054 91.7672 17.2649 92.4533 17.6868C93.1394 18.1087 93.6721 18.701 94.0513 19.4638C94.4306 20.2266 94.6202 21.1172 94.6202 22.1357C94.6202 23.1499 94.4306 24.0362 94.0513 24.7947C93.6721 25.5533 93.1394 26.1435 92.4533 26.5653C91.7672 26.9872 90.964 27.1982 90.0435 27.1982ZM90.0499 25.5938C90.6465 25.5938 91.1408 25.4361 91.5328 25.1207C91.9249 24.8054 92.2147 24.3857 92.4022 23.8615C92.5939 23.3374 92.6898 22.7599 92.6898 22.1293C92.6898 21.5028 92.5939 20.9276 92.4022 20.4034C92.2147 19.875 91.9249 19.451 91.5328 19.1314C91.1408 18.8118 90.6465 18.652 90.0499 18.652C89.449 18.652 88.9505 18.8118 88.5542 19.1314C88.1621 19.451 87.8702 19.875 87.6784 20.4034C87.4909 20.9276 87.3972 21.5028 87.3972 22.1293C87.3972 22.7599 87.4909 23.3374 87.6784 23.8615C87.8702 24.3857 88.1621 24.8054 88.5542 25.1207C88.9505 25.4361 89.449 25.5938 90.0499 25.5938ZM98.5114 23.6697L98.4986 21.3366H98.831L102.743 17.1818H105.031L100.57 21.9119H100.269L98.5114 23.6697ZM96.7536 27V13.9091H98.6648V27H96.7536ZM102.954 27L99.4382 22.3338L100.755 20.9979L105.3 27H102.954ZM106.926 27V13.9091H111.721C112.65 13.9091 113.419 14.0625 114.028 14.3693C114.637 14.6719 115.093 15.0831 115.396 15.603C115.699 16.1186 115.85 16.7003 115.85 17.348C115.85 17.8935 115.75 18.3537 115.549 18.7287C115.349 19.0994 115.081 19.3977 114.744 19.6236C114.412 19.8452 114.045 20.0071 113.645 20.1094V20.2372C114.079 20.2585 114.503 20.3991 114.917 20.6591C115.334 20.9148 115.679 21.2791 115.952 21.7521C116.225 22.2251 116.361 22.8004 116.361 23.478C116.361 24.147 116.203 24.7479 115.888 25.2805C115.577 25.8089 115.096 26.2287 114.444 26.5398C113.792 26.8466 112.958 27 111.944 27H106.926ZM108.902 25.3061H111.752C112.699 25.3061 113.376 25.1229 113.785 24.7564C114.194 24.3899 114.399 23.9318 114.399 23.3821C114.399 22.9687 114.294 22.5895 114.086 22.2443C113.877 21.8991 113.578 21.6243 113.191 21.4197C112.807 21.2152 112.351 21.1129 111.823 21.1129H108.902V25.3061ZM108.902 19.5724H111.548C111.991 19.5724 112.39 19.4872 112.743 19.3168C113.101 19.1463 113.385 18.9077 113.593 18.6009C113.806 18.2898 113.913 17.9233 113.913 17.5014C113.913 16.9602 113.723 16.5064 113.344 16.1399C112.965 15.7734 112.383 15.5902 111.599 15.5902H108.902V19.5724ZM122.686 27.1982C121.766 27.1982 120.962 26.9872 120.276 26.5653C119.59 26.1435 119.058 25.5533 118.678 24.7947C118.299 24.0362 118.109 23.1499 118.109 22.1357C118.109 21.1172 118.299 20.2266 118.678 19.4638C119.058 18.701 119.59 18.1087 120.276 17.6868C120.962 17.2649 121.766 17.054 122.686 17.054C123.607 17.054 124.41 17.2649 125.096 17.6868C125.782 18.1087 126.315 18.701 126.694 19.4638C127.073 20.2266 127.263 21.1172 127.263 22.1357C127.263 23.1499 127.073 24.0362 126.694 24.7947C126.315 25.5533 125.782 26.1435 125.096 26.5653C124.41 26.9872 123.607 27.1982 122.686 27.1982ZM122.692 25.5938C123.289 25.5938 123.783 25.4361 124.175 25.1207C124.567 24.8054 124.857 24.3857 125.045 23.8615C125.237 23.3374 125.332 22.7599 125.332 22.1293C125.332 21.5028 125.237 20.9276 125.045 20.4034C124.857 19.875 124.567 19.451 124.175 19.1314C123.783 18.8118 123.289 18.652 122.692 18.652C122.092 18.652 121.593 18.8118 121.197 19.1314C120.805 19.451 120.513 19.875 120.321 20.4034C120.134 20.9276 120.04 21.5028 120.04 22.1293C120.04 22.7599 120.134 23.3374 120.321 23.8615C120.513 24.3857 120.805 24.8054 121.197 25.1207C121.593 25.4361 122.092 25.5938 122.692 25.5938ZM133.532 27.1982C132.611 27.1982 131.808 26.9872 131.122 26.5653C130.436 26.1435 129.903 25.5533 129.524 24.7947C129.145 24.0362 128.955 23.1499 128.955 22.1357C128.955 21.1172 129.145 20.2266 129.524 19.4638C129.903 18.701 130.436 18.1087 131.122 17.6868C131.808 17.2649 132.611 17.054 133.532 17.054C134.452 17.054 135.256 17.2649 135.942 17.6868C136.628 18.1087 137.16 18.701 137.54 19.4638C137.919 20.2266 138.108 21.1172 138.108 22.1357C138.108 23.1499 137.919 24.0362 137.54 24.7947C137.16 25.5533 136.628 26.1435 135.942 26.5653C135.256 26.9872 134.452 27.1982 133.532 27.1982ZM133.538 25.5938C134.135 25.5938 134.629 25.4361 135.021 25.1207C135.413 24.8054 135.703 24.3857 135.89 23.8615C136.082 23.3374 136.178 22.7599 136.178 22.1293C136.178 21.5028 136.082 20.9276 135.89 20.4034C135.703 19.875 135.413 19.451 135.021 19.1314C134.629 18.8118 134.135 18.652 133.538 18.652C132.937 18.652 132.439 18.8118 132.042 19.1314C131.65 19.451 131.358 19.875 131.167 20.4034C130.979 20.9276 130.885 21.5028 130.885 22.1293C130.885 22.7599 130.979 23.3374 131.167 23.8615C131.358 24.3857 131.65 24.8054 132.042 25.1207C132.439 25.4361 132.937 25.5938 133.538 25.5938ZM147.599 19.5788L145.867 19.8857C145.794 19.6641 145.679 19.4531 145.522 19.2528C145.368 19.0526 145.159 18.8885 144.895 18.7607C144.631 18.6328 144.301 18.5689 143.904 18.5689C143.363 18.5689 142.912 18.6903 142.549 18.9332C142.187 19.1719 142.006 19.4808 142.006 19.8601C142.006 20.1882 142.127 20.4524 142.37 20.6527C142.613 20.853 143.005 21.017 143.547 21.1449L145.106 21.5028C146.01 21.7116 146.683 22.0334 147.126 22.468C147.569 22.9027 147.791 23.4673 147.791 24.1619C147.791 24.75 147.62 25.2741 147.279 25.7344C146.943 26.1903 146.472 26.5483 145.867 26.8082C145.266 27.0682 144.569 27.1982 143.777 27.1982C142.677 27.1982 141.78 26.9638 141.086 26.495C140.391 26.022 139.965 25.3509 139.807 24.4815L141.654 24.2003C141.77 24.6818 142.006 25.0462 142.364 25.2933C142.722 25.5362 143.189 25.6577 143.764 25.6577C144.39 25.6577 144.891 25.5277 145.266 25.2678C145.641 25.0036 145.828 24.6818 145.828 24.3026C145.828 23.9957 145.713 23.7379 145.483 23.5291C145.257 23.3203 144.91 23.1626 144.441 23.0561L142.779 22.6918C141.863 22.483 141.186 22.1506 140.747 21.6946C140.312 21.2386 140.095 20.6612 140.095 19.9624C140.095 19.3828 140.257 18.8757 140.581 18.4411C140.904 18.0064 141.352 17.6676 141.923 17.4247C142.494 17.1776 143.148 17.054 143.885 17.054C144.946 17.054 145.782 17.2841 146.391 17.7443C147 18.2003 147.403 18.8118 147.599 19.5788ZM154.475 17.1818V18.7159H149.112V17.1818H154.475ZM150.551 14.8295H152.462V24.1172C152.462 24.4879 152.517 24.767 152.628 24.9545C152.739 25.1378 152.882 25.2635 153.056 25.3317C153.235 25.3956 153.429 25.4276 153.638 25.4276C153.791 25.4276 153.926 25.4169 154.041 25.3956C154.156 25.3743 154.245 25.3572 154.309 25.3445L154.654 26.9233C154.544 26.9659 154.386 27.0085 154.181 27.0511C153.977 27.098 153.721 27.1236 153.414 27.1278C152.911 27.1364 152.443 27.0469 152.008 26.8594C151.573 26.6719 151.222 26.3821 150.953 25.9901C150.685 25.598 150.551 25.1058 150.551 24.5135V14.8295Z" fill="white"/>
<defs>
<clipPath id="clip0_10_3334">
<rect width="44.7791" height="36" fill="white" transform="translate(0.837891 2.0249)"/>
</clipPath>
</defs>
</svg>
