<svg xmlns="http://www.w3.org/2000/svg">
  <g id='close'>
    <svg width="14" height="14" viewBox="0 0 14 14" fill="none" xmlns="http://www.w3.org/2000/svg">
    <path d="M13.3002 0.710224C13.2077 0.61752 13.0978 0.543973 12.9768 0.493791C12.8559 0.44361 12.7262 0.417779 12.5952 0.417779C12.4643 0.417779 12.3346 0.44361 12.2136 0.493791C12.0926 0.543973 11.9827 0.61752 11.8902 0.710224L7.00022 5.59022L2.11022 0.700223C2.01764 0.607642 1.90773 0.534202 1.78677 0.484097C1.6658 0.433992 1.53615 0.408203 1.40522 0.408203C1.27429 0.408203 1.14464 0.433992 1.02368 0.484097C0.902716 0.534202 0.792805 0.607642 0.700223 0.700223C0.607642 0.792805 0.534202 0.902716 0.484097 1.02368C0.433992 1.14464 0.408203 1.27429 0.408203 1.40522C0.408203 1.53615 0.433992 1.6658 0.484097 1.78677C0.534202 1.90773 0.607642 2.01764 0.700223 2.11022L5.59022 7.00022L0.700223 11.8902C0.607642 11.9828 0.534202 12.0927 0.484097 12.2137C0.433992 12.3346 0.408203 12.4643 0.408203 12.5952C0.408203 12.7262 0.433992 12.8558 0.484097 12.9768C0.534202 13.0977 0.607642 13.2076 0.700223 13.3002C0.792805 13.3928 0.902716 13.4662 1.02368 13.5163C1.14464 13.5665 1.27429 13.5922 1.40522 13.5922C1.53615 13.5922 1.6658 13.5665 1.78677 13.5163C1.90773 13.4662 2.01764 13.3928 2.11022 13.3002L7.00022 8.41022L11.8902 13.3002C11.9828 13.3928 12.0927 13.4662 12.2137 13.5163C12.3346 13.5665 12.4643 13.5922 12.5952 13.5922C12.7262 13.5922 12.8558 13.5665 12.9768 13.5163C13.0977 13.4662 13.2076 13.3928 13.3002 13.3002C13.3928 13.2076 13.4662 13.0977 13.5163 12.9768C13.5665 12.8558 13.5922 12.7262 13.5922 12.5952C13.5922 12.4643 13.5665 12.3346 13.5163 12.2137C13.4662 12.0927 13.3928 11.9828 13.3002 11.8902L8.41022 7.00022L13.3002 2.11022C13.6802 1.73022 13.6802 1.09022 13.3002 0.710224Z" fill="currentColor"/>
    </svg>
  </g>

  <g id='users'>
    <svg width="32" height="25" viewBox="0 0 32 25" fill="none" xmlns="http://www.w3.org/2000/svg">
    <path d="M14 24.5C14 24.5 12 24.5 12 22.5C12 20.5 14 14.5 22 14.5C30 14.5 32 20.5 32 22.5C32 24.5 30 24.5 30 24.5H14ZM22 12.5C23.5913 12.5 25.1174 11.8679 26.2426 10.7426C27.3679 9.61742 28 8.0913 28 6.5C28 4.9087 27.3679 3.38258 26.2426 2.25736C25.1174 1.13214 23.5913 0.5 22 0.5C20.4087 0.5 18.8826 1.13214 17.7574 2.25736C16.6321 3.38258 16 4.9087 16 6.5C16 8.0913 16.6321 9.61742 17.7574 10.7426C18.8826 11.8679 20.4087 12.5 22 12.5ZM10.432 24.5C10.1356 23.8756 9.98779 23.1911 10 22.5C10 19.79 11.36 17 13.872 15.06C12.6184 14.6729 11.312 14.4839 10 14.5C2 14.5 0 20.5 0 22.5C0 24.5 2 24.5 2 24.5H10.432ZM9 12.5C10.3261 12.5 11.5979 11.9732 12.5355 11.0355C13.4732 10.0979 14 8.82608 14 7.5C14 6.17392 13.4732 4.90215 12.5355 3.96447C11.5979 3.02678 10.3261 2.5 9 2.5C7.67392 2.5 6.40215 3.02678 5.46447 3.96447C4.52678 4.90215 4 6.17392 4 7.5C4 8.82608 4.52678 10.0979 5.46447 11.0355C6.40215 11.9732 7.67392 12.5 9 12.5Z" fill="white"/>
    </svg>

  </g>

  <g id='sales'>
    <svg width="31" height="37" viewBox="0 0 31 37" fill="none" xmlns="http://www.w3.org/2000/svg">
    <mask id="mask0_119_1757" style="mask-type:luminance" maskUnits="userSpaceOnUse" x="0" y="0" width="31" height="37">
    <path d="M29.2 10.5001L15.6 2.50006L2 10.5001V26.5001L15.6 34.5001L29.2 26.5001V10.5001Z" fill="white" stroke="white" stroke-width="3.2" stroke-linejoin="round"/>
    <path d="M15.6 16.9001V23.3001M22 13.7001V23.3001M9.19995 20.1001V23.3001" stroke="black" stroke-width="3.2" stroke-linecap="round" stroke-linejoin="round"/>
    </mask>
    <g mask="url(#mask0_119_1757)">
    <path d="M-3.6001 -0.69989H34.7999V37.7001H-3.6001V-0.69989Z" fill="white"/>
    </g>
    </svg>
  </g>

  <g id='happy'>
    <svg width="32" height="33" viewBox="0 0 32 33" fill="none" xmlns="http://www.w3.org/2000/svg">
    <path d="M16 0.500061C7.1776 0.500061 0 7.67766 0 16.5001C0 25.3225 7.1776 32.5001 16 32.5001C24.8224 32.5001 32 25.3225 32 16.5001C32 7.67766 24.8224 0.500061 16 0.500061ZM21.5888 11.7001C21.9078 11.6919 22.2252 11.7477 22.5223 11.8642C22.8194 11.9807 23.0902 12.1555 23.3187 12.3783C23.5471 12.601 23.7287 12.8673 23.8526 13.1614C23.9766 13.4555 24.0403 13.7714 24.0402 14.0905C24.0401 14.4096 23.9761 14.7255 23.852 15.0194C23.7279 15.3134 23.5461 15.5796 23.3175 15.8022C23.0889 16.0249 22.818 16.1995 22.5208 16.3157C22.2237 16.432 21.9062 16.4876 21.5872 16.4793C20.9641 16.4629 20.3721 16.2039 19.9373 15.7574C19.5025 15.3108 19.2592 14.7121 19.2594 14.0889C19.2596 13.4656 19.5033 12.8671 19.9384 12.4208C20.3735 11.9746 20.9657 11.716 21.5888 11.7001ZM10.4 11.7001C10.7153 11.7002 11.0274 11.7624 11.3187 11.8831C11.6099 12.0039 11.8745 12.1808 12.0974 12.4038C12.3202 12.6268 12.497 12.8915 12.6176 13.1829C12.7381 13.4742 12.8001 13.7864 12.8 14.1017C12.7999 14.4169 12.7377 14.7291 12.6169 15.0203C12.4962 15.3116 12.3193 15.5762 12.0963 15.799C11.8732 16.0219 11.6085 16.1987 11.3172 16.3192C11.0259 16.4398 10.7137 16.5018 10.3984 16.5017C9.76167 16.5014 9.1511 16.2483 8.70101 15.7979C8.25093 15.3475 7.99819 14.7368 7.9984 14.1001C7.99861 13.4633 8.25176 12.8528 8.70214 12.4027C9.15253 11.9526 9.76327 11.6998 10.4 11.7001ZM16 26.1001C9.6 26.1001 8 19.7001 8 19.7001H24C24 19.7001 22.4 26.1001 16 26.1001Z" fill="white"/>
    </svg>

  </g>

  <g id='award'>
    <svg width="31" height="33" viewBox="0 0 31 33" fill="none" xmlns="http://www.w3.org/2000/svg">
    <path d="M27.5007 19.7774L30.6634 25.2567C30.794 25.4823 30.8678 25.7361 30.8785 25.9965C30.8892 26.2569 30.8365 26.5159 30.7249 26.7514C30.6134 26.9869 30.4463 27.1918 30.238 27.3484C30.0297 27.505 29.7865 27.6087 29.5293 27.6505L29.3475 27.6682L29.1673 27.6666L24.4489 27.3609L22.3527 31.6016C22.2392 31.8314 22.0724 32.0309 21.8661 32.1832C21.6599 32.3355 21.4202 32.4364 21.1671 32.4773C20.914 32.5182 20.6548 32.4981 20.411 32.4185C20.1673 32.3389 19.9461 32.2022 19.7659 32.0198L19.634 31.8686L19.5182 31.6916L16.3522 26.2107C18.5807 26.0707 20.7466 25.4171 22.6806 24.301C24.6146 23.185 26.2643 21.6368 27.5007 19.7774ZM14.5246 26.2107L11.3619 31.6933C11.234 31.9157 11.0547 32.1042 10.8391 32.2433C10.6235 32.3823 10.3777 32.4677 10.1223 32.4925C9.86696 32.5172 9.60938 32.4805 9.37109 32.3854C9.1328 32.2903 8.92071 32.1396 8.75251 31.9458L8.63025 31.785L8.52729 31.6016L6.42951 27.3625L1.71431 27.6682C1.45447 27.6853 1.19437 27.6391 0.956338 27.5335C0.71831 27.4279 0.509475 27.266 0.34777 27.0619C0.186064 26.8578 0.0763237 26.6175 0.0279738 26.3616C-0.0203761 26.1058 -0.00589002 25.842 0.0701879 25.5929L0.134537 25.4208L0.214974 25.2599L3.38096 19.7758C4.61649 21.6351 6.26524 23.1836 8.19838 24.3002C10.1315 25.4167 12.2967 26.0696 14.5246 26.2107ZM15.4416 0.499939L15.8277 0.506374C18.7458 0.606482 21.511 1.83609 23.5399 3.93582C25.5688 6.03556 26.7028 8.84125 26.7027 11.7611L26.6979 12.0715L26.6867 12.3804L26.6577 12.7746L26.6159 13.1639L26.5773 13.4502C26.4713 14.1446 26.3005 14.8275 26.0673 15.4901L25.8807 15.9856L25.6346 16.5454C24.7238 18.4855 23.2784 20.1255 21.4681 21.2728C19.6577 22.42 17.5576 23.0269 15.4144 23.0222C13.2712 23.0175 11.1738 22.4013 9.36853 21.2461C7.56328 20.0908 6.12513 18.4445 5.22296 16.5004L5.01382 16.0226L4.93017 15.8086L4.80147 15.4595L4.64864 14.9866C4.59408 14.8034 4.54419 14.6189 4.49903 14.4332L4.4025 13.9972L4.32368 13.5612L4.2915 13.3376L4.22876 12.818L4.19015 12.2308L4.1805 11.7611C4.18045 8.84125 5.31448 6.03556 7.34339 3.93582C9.37229 1.83609 12.1374 0.606482 15.0555 0.506374L15.4416 0.499939Z" fill="white"/>
    </svg>

  </g>
  
  <g id=''></g>
  <g id=''></g>
  <g id=''></g>
</svg>