<svg width="16" height="16" viewBox="0 0 16 16" fill="none" xmlns="http://www.w3.org/2000/svg">
<path d="M4.62638 3.33327C4.62621 3.68689 4.48556 4.02596 4.23539 4.27588C3.98521 4.5258 3.64601 4.66611 3.29238 4.66593C2.93876 4.66576 2.59969 4.52511 2.34977 4.27494C2.09985 4.02477 1.95954 3.68556 1.95972 3.33193C1.95989 2.97831 2.10054 2.63924 2.35071 2.38932C2.60089 2.1394 2.94009 1.99909 3.29372 1.99927C3.64734 1.99944 3.98641 2.14009 4.23633 2.39026C4.48625 2.64044 4.62656 2.97965 4.62638 3.33327ZM4.66638 5.65327H1.99972V13.9999H4.66638V5.65327ZM8.87972 5.65327H6.22638V13.9999H8.85305V9.61993C8.85305 7.17993 12.033 6.95327 12.033 9.61993V13.9999H14.6664V8.71327C14.6664 4.59993 9.95972 4.75327 8.85305 6.77327L8.87972 5.65327Z" fill="white"/>
</svg>
