<svg width="16" height="16" viewBox="0 0 16 16" fill="none" xmlns="http://www.w3.org/2000/svg">
<path d="M14.6352 4.3001C14.7244 4.19621 14.6082 4.06046 14.4763 4.10909C14.182 4.21763 13.9131 4.28922 13.5154 4.33341C14.0046 4.06101 14.2321 3.67167 14.4172 3.19481C14.4618 3.07979 14.3272 2.97541 14.2112 3.03036C13.7404 3.25362 13.2323 3.41926 12.698 3.51713C12.17 2.99377 11.4173 2.66675 10.5846 2.66675C8.98565 2.66675 7.68905 3.87259 7.68905 5.35953C7.68905 5.57062 7.71492 5.77624 7.76372 5.97311C5.46528 5.86603 3.41579 4.88281 1.9919 3.37515C1.89431 3.27182 1.71722 3.28554 1.65646 3.41157C1.49435 3.74781 1.40398 4.12081 1.40398 4.51352C1.40398 5.44757 1.91499 6.2717 2.6918 6.75461C2.3435 6.74415 2.01041 6.67628 1.70345 6.56111C1.554 6.50504 1.38268 6.60357 1.40276 6.75428C1.55691 7.91155 2.49386 8.86628 3.70324 9.09188C3.46038 9.15368 3.20458 9.18648 2.93996 9.18648C2.8758 9.18648 2.81219 9.18448 2.74916 9.18061C2.58878 9.17068 2.45844 9.31415 2.5272 9.45141C2.98087 10.3569 3.96048 10.989 5.10044 11.0087C4.10958 11.7311 2.86116 12.1615 1.50453 12.1615C1.33726 12.1615 1.2655 12.3765 1.4139 12.4495C2.56005 13.0129 3.86529 13.3334 5.25216 13.3334C10.5781 13.3334 13.4901 9.23028 13.4901 5.67179C13.4901 5.55531 13.4872 5.43882 13.4819 5.32343C13.9142 5.03301 14.3028 4.68767 14.6352 4.3001Z" fill="white"/>
</svg>
