<svg width="32" height="18" viewBox="0 0 32 18" fill="none" xmlns="http://www.w3.org/2000/svg">
    <path d="M28.9334 1.93644e-07C28.4568 0.000153743 27.9869 0.111399 27.5609 0.324903C27.1348 0.538407 26.7645 0.84829 26.4791 1.22995C26.1938 1.61161 26.0013 2.05453 25.9171 2.52356C25.8328 2.99258 25.8591 3.47479 25.9938 3.9319L21.2375 8.68749C20.6102 8.47854 19.9321 8.47854 19.3049 8.68749L15.7788 5.16145C15.8949 4.70869 15.9058 4.23539 15.8109 3.77775C15.716 3.3201 15.5176 2.89022 15.2311 2.52098C14.9445 2.15173 14.5774 1.8529 14.1576 1.64732C13.7379 1.44175 13.2766 1.33487 12.8093 1.33487C12.3419 1.33487 11.8807 1.44175 11.4609 1.64732C11.0412 1.8529 10.674 2.15173 10.3874 2.52098C10.1009 2.89022 9.90255 3.3201 9.80762 3.77775C9.71268 4.23539 9.72365 4.70869 9.83968 5.16145L3.9425 11.0546C3.28779 10.8608 2.58715 10.8907 1.95135 11.1397C1.31554 11.3886 0.780829 11.8423 0.431728 12.4291C0.0826267 13.0159 -0.0609505 13.7023 0.0236902 14.3799C0.108331 15.0574 0.416362 15.6874 0.899095 16.1703C1.38183 16.6532 2.01173 16.9614 2.68923 17.0463C3.36673 17.1311 4.0532 16.9878 4.64011 16.6389C5.22703 16.29 5.68093 15.7554 5.93005 15.1197C6.17918 14.4839 6.20933 13.7833 6.01574 13.1285L11.8383 7.30666C12.4655 7.51576 13.1437 7.51576 13.7709 7.30666L17.2976 10.8334C17.1816 11.2861 17.1706 11.7594 17.2656 12.2171C17.3605 12.6747 17.5588 13.1046 17.8454 13.4738C18.1319 13.8431 18.4991 14.1419 18.9189 14.3475C19.3386 14.5531 19.7998 14.6599 20.2672 14.6599C20.7346 14.6599 21.1958 14.5531 21.6155 14.3475C22.0353 14.1419 22.4025 13.8431 22.689 13.4738C22.9756 13.1046 23.1739 12.6747 23.2688 12.2171C23.3638 11.7594 23.3528 11.2861 23.2368 10.8334L28.067 6.0058C28.4887 6.13021 28.9322 6.16246 29.3675 6.10036C29.8027 6.03826 30.2195 5.88326 30.5896 5.64589C30.9596 5.40852 31.2743 5.09433 31.5122 4.72463C31.7502 4.35493 31.9058 3.93837 31.9686 3.50323C32.0314 3.06808 31.9998 2.62452 31.876 2.20264C31.7523 1.78077 31.5392 1.39045 31.2513 1.05817C30.9635 0.725884 30.6075 0.459414 30.2075 0.276836C29.8076 0.0942579 29.373 -0.000156065 28.9334 1.93644e-07Z" fill="white"/>
    </svg>