<svg width="25" height="32" viewBox="0 0 25 32" fill="none" xmlns="http://www.w3.org/2000/svg">
    <path d="M12.1905 24.381C11.3822 24.381 10.607 24.0599 10.0355 23.4883C9.46395 22.9168 9.14286 22.1416 9.14286 21.3333C9.14286 19.6419 10.499 18.2857 12.1905 18.2857C12.9988 18.2857 13.7739 18.6068 14.3455 19.1783C14.917 19.7499 15.2381 20.5251 15.2381 21.3333C15.2381 22.1416 14.917 22.9168 14.3455 23.4883C13.7739 24.0599 12.9988 24.381 12.1905 24.381ZM21.3333 28.9524V13.7143H3.04762V28.9524H21.3333ZM21.3333 10.6667C22.1416 10.6667 22.9168 10.9878 23.4883 11.5593C24.0599 12.1308 24.381 12.906 24.381 13.7143V28.9524C24.381 29.7607 24.0599 30.5358 23.4883 31.1074C22.9168 31.6789 22.1416 32 21.3333 32H3.04762C2.23934 32 1.46417 31.6789 0.892627 31.1074C0.321087 30.5358 0 29.7607 0 28.9524V13.7143C0 12.0229 1.35619 10.6667 3.04762 10.6667H4.57143V7.61905C4.57143 5.59835 5.37415 3.66042 6.803 2.23157C8.23184 0.802719 10.1698 0 12.1905 0C13.191 0 14.1818 0.197073 15.1062 0.579966C16.0305 0.962858 16.8705 1.52407 17.578 2.23157C18.2854 2.93906 18.8467 3.77898 19.2296 4.70336C19.6125 5.62775 19.8095 6.6185 19.8095 7.61905V10.6667H21.3333ZM12.1905 3.04762C10.9781 3.04762 9.8153 3.52925 8.95799 4.38656C8.10068 5.24387 7.61905 6.40663 7.61905 7.61905V10.6667H16.7619V7.61905C16.7619 6.40663 16.2803 5.24387 15.423 4.38656C14.5657 3.52925 13.4029 3.04762 12.1905 3.04762Z" fill="white"/>
    </svg>