<svg width="32" height="32" viewBox="0 0 32 32" fill="none" xmlns="http://www.w3.org/2000/svg">
    <g clip-path="url(#clip0_135_1854)">
    <path d="M30.3998 16.752C30.3998 7.968 23.5838 2 15.9998 2C8.49576 2 1.59976 7.84 1.59976 16.848C0.639756 17.392 -0.000244141 18.416 -0.000244141 19.6V22.8C-0.000244141 24.56 1.43976 26 3.19976 26H4.79976V16.24C4.79976 10.048 9.80776 5.04 15.9998 5.04C22.1918 5.04 27.1998 10.048 27.1998 16.24V27.6H14.3998V30.8H27.1998C28.9598 30.8 30.3998 29.36 30.3998 27.6V25.648C31.3438 25.152 31.9998 24.176 31.9998 23.024V19.344C31.9998 18.224 31.3438 17.248 30.3998 16.752Z" fill="white"/>
    <path d="M15.5998 17.2C16.4834 17.2 17.1998 16.4837 17.1998 15.6C17.1998 14.7163 16.4834 14 15.5998 14C14.7161 14 13.9998 14.7163 13.9998 15.6C13.9998 16.4837 14.7161 17.2 15.5998 17.2Z" fill="white"/>
    <path d="M15.5998 17.2C16.4834 17.2 17.1998 16.4837 17.1998 15.6C17.1998 14.7163 16.4834 14 15.5998 14C14.7161 14 13.9998 14.7163 13.9998 15.6C13.9998 16.4837 14.7161 17.2 15.5998 17.2Z" fill="white"/>
    <path d="M25.1911 19.048C24.8096 16.7986 23.6446 14.7567 21.9022 13.2838C20.1599 11.8109 17.9526 11.0019 15.6711 11C10.8231 11 5.60711 15.016 6.02311 21.32C7.99613 20.5126 9.7387 19.2296 11.0955 17.5853C12.4523 15.9409 13.3811 13.9864 13.7991 11.896C15.8951 16.104 20.1991 19 25.1911 19.048Z" fill="white"/>
    </g>
    <defs>
    <clipPath id="clip0_135_1854">
    <rect width="32" height="32" fill="white"/>
    </clipPath>
    </defs>
    </svg>
