<svg width="32" height="32" viewBox="0 0 32 32" fill="none" xmlns="http://www.w3.org/2000/svg">
      <path d="M31.5358 29.2628L29.2639 31.5347C28.9641 31.8327 28.5586 32 28.1359 32C27.7132 32 27.3077 31.8327 27.008 31.5347L8.00071 12.5595C7.48047 12.7104 6.94239 12.7911 6.40077 12.7995C5.3821 12.7988 4.37831 12.5549 3.47287 12.0881C2.56743 11.6213 1.7865 10.9452 1.195 10.1158C0.603496 9.28645 0.218518 8.32788 0.0720716 7.31979C-0.0743749 6.31169 0.0219406 5.2832 0.35301 4.31983L4.41685 8.38367L5.26482 7.5357L7.53673 5.26379L8.38469 4.41582L4.32085 0.351986C5.28423 0.0209164 6.31272 -0.0753991 7.32081 0.0710474C8.32891 0.217494 9.28747 0.602471 10.1168 1.19397C10.9462 1.78547 11.6224 2.56641 12.0891 3.47185C12.5559 4.37729 12.7998 5.38107 12.8005 6.39975C12.7922 6.94137 12.7114 7.47944 12.5605 7.99968L31.5358 27.0069C31.8338 27.3067 32.001 27.7122 32.001 28.1349C32.001 28.5576 31.8338 28.9631 31.5358 29.2628ZM0.465006 27.0069C0.167016 27.3067 -0.000244141 27.7122 -0.000244141 28.1349C-0.000244141 28.5576 0.167016 28.9631 0.465006 29.2628L2.73692 31.5347C3.03668 31.8327 3.44219 32 3.86487 32C4.28755 32 4.69306 31.8327 4.99283 31.5347L13.7445 22.7991L9.21666 18.2713M28.7999 0L22.4001 3.19987V6.39975L18.9283 9.87161L22.1281 13.0715L25.6 9.59962H28.7999L31.9998 3.19987L28.7999 0Z" fill="white"/>
    </svg>