<svg width="32" height="32" viewBox="0 0 32 32" fill="none" xmlns="http://www.w3.org/2000/svg">
    <path d="M13.8666 19.2001H7.4666C6.61791 19.2001 5.80398 19.5373 5.20386 20.1374C4.60374 20.7375 4.2666 21.5514 4.2666 22.4001V24.5335H6.39994V22.4001C6.39994 22.1172 6.51232 21.8459 6.71236 21.6459C6.91239 21.4458 7.1837 21.3334 7.4666 21.3334H13.8666C14.1495 21.3334 14.4208 21.4458 14.6209 21.6459C14.8209 21.8459 14.9333 22.1172 14.9333 22.4001V24.5335H17.0666V22.4001C17.0666 21.5514 16.7295 20.7375 16.1293 20.1374C15.5292 19.5373 14.7153 19.2001 13.8666 19.2001ZM10.6666 18.1334C11.5105 18.1334 12.3354 17.8832 13.037 17.4144C13.7387 16.9456 14.2856 16.2792 14.6085 15.4996C14.9314 14.7199 15.0159 13.862 14.8513 13.0344C14.6867 12.2067 14.2803 11.4465 13.6836 10.8498C13.0869 10.2531 12.3266 9.84671 11.499 9.68208C10.6713 9.51745 9.81345 9.60195 9.03382 9.92488C8.25419 10.2478 7.58783 10.7947 7.119 11.4963C6.65017 12.198 6.39994 13.0229 6.39994 13.8668C6.39994 14.9984 6.84946 16.0836 7.64961 16.8838C8.44977 17.6839 9.53501 18.1334 10.6666 18.1334ZM10.6666 11.7334C11.0885 11.7334 11.501 11.8586 11.8518 12.093C12.2026 12.3274 12.4761 12.6606 12.6375 13.0504C12.799 13.4402 12.8413 13.8691 12.7589 14.283C12.6766 14.6968 12.4734 15.0769 12.1751 15.3753C11.8767 15.6736 11.4966 15.8768 11.0828 15.9591C10.669 16.0414 10.24 15.9992 9.85021 15.8377C9.4604 15.6763 9.12721 15.4028 8.8928 15.052C8.65839 14.7012 8.53327 14.2887 8.53327 13.8668C8.53327 13.301 8.75803 12.7584 9.15811 12.3583C9.55819 11.9582 10.1008 11.7334 10.6666 11.7334Z" fill="white"/>
    <path d="M27.7333 18.1333V27.7333H2.13333V6.39994H14.9333V4.2666H2.13333C1.56754 4.2666 1.02492 4.49136 0.624839 4.89144C0.224761 5.29152 0 5.83414 0 6.39994V27.7333C0 28.2991 0.224761 28.8417 0.624839 29.2418C1.02492 29.6419 1.56754 29.8666 2.13333 29.8666H27.7333C28.2991 29.8666 28.8418 29.6419 29.2418 29.2418C29.6419 28.8417 29.8667 28.2991 29.8667 27.7333V18.1333H27.7333Z" fill="white"/>
    <path d="M19.2 18.1334H25.6V20.2667H19.2V18.1334ZM21.3333 22.4H25.6V24.5334H21.3333V22.4ZM32 8.53334V6.40001H29.7589C29.6205 5.73255 29.3555 5.0978 28.9781 4.53014L30.5675 2.9408L29.0592 1.43253L27.4699 3.02187C26.9022 2.6445 26.2674 2.37945 25.6 2.24107V0H23.4667V2.24107C22.7992 2.37945 22.1644 2.6445 21.5968 3.02187L20.0075 1.43253L18.4992 2.9408L20.0885 4.53014C19.7111 5.0978 19.4461 5.73255 19.3077 6.40001H17.0667V8.53334H19.3077C19.4461 9.2008 19.7111 9.83555 20.0885 10.4032L18.4992 11.9925L20.0075 13.5008L21.5968 11.9115C22.1644 12.2888 22.7992 12.5539 23.4667 12.6923V14.9334H25.6V12.6923C26.2674 12.5539 26.9022 12.2888 27.4699 11.9115L29.0592 13.5008L30.5675 11.9925L28.9781 10.4032C29.3555 9.83555 29.6205 9.2008 29.7589 8.53334H32ZM24.5333 10.6667C23.9004 10.6667 23.2817 10.479 22.7555 10.1274C22.2293 9.77576 21.8191 9.27599 21.5769 8.69126C21.3347 8.10654 21.2713 7.46313 21.3948 6.84239C21.5183 6.22165 21.823 5.65146 22.2706 5.20393C22.7181 4.7564 23.2883 4.45163 23.909 4.32816C24.5298 4.20469 25.1732 4.26806 25.7579 4.51026C26.3426 4.75246 26.8424 5.16261 27.194 5.68885C27.5456 6.21509 27.7333 6.83377 27.7333 7.46668C27.7325 8.31511 27.3951 9.12855 26.7951 9.72848C26.1952 10.3284 25.3818 10.6658 24.5333 10.6667Z" fill="white"/>
    </svg>